<?xml version="1.0" encoding="UTF-8" standalone="no"?>
<!-- Created with Inkscape (http://www.inkscape.org/) -->

<svg
   version="1.1"
   id="svg296"
   width="233.23277"
   height="45.806458"
   viewBox="0 0 233.23277 45.806458"
   xmlns="http://www.w3.org/2000/svg"
   xmlns:svg="http://www.w3.org/2000/svg">
  <defs
     id="defs300" />
  <g
     id="g408"
     transform="matrix(3.060467,0,0,3.060467,-200.93669,-4.3669704e-7)">
    <g
       id="g402">
      <path
         style="fill:#ed670f"
         d="M 92.615911,13.821082 C 85.718807,12.768163 76.231605,10.032438 74.289696,8.5365438 73.358607,7.8193058 72.725448,7.9000758 72.164541,8.8076408 71.110851,10.512549 67.42011,9.3232438 66.097935,6.8527378 65.282928,5.3298844 65.532852,4.6592425 67.362012,3.4607307 71.739426,0.5925392 80.02996,-0.3854884 95.574201,0.1325616 c 15.803709,0.5266976 29.144159,3.0275066 36.791709,6.8969972 4.73743,2.397035 4.98917,5.2291412 0.60078,6.7589432 -4.01693,1.400307 -5.14802,1.387788 -4.26117,-0.04716 0.50533,-0.81764 -0.12107,-0.933734 -2.19099,-0.406071 -4.58429,1.168629 -27.293949,1.494091 -33.898619,0.485815 z M 123.86591,12.256041 C 128.56184,10.99758 125.4594,8.5577598 116.18417,6.2149698 109.75185,4.5902572 85.096662,3.2921539 79.743733,4.2963695 77.748431,4.6706904 76.115911,5.395006 76.115911,5.9059598 c 0,1.612147 5.444094,3.828642 13.10371,5.3350112 7.44119,1.463413 30.457079,2.137734 34.646289,1.01507 z"
         id="path1832" />
      <path
         style="fill:#ed670f;fill-opacity:1"
         d="m 126.289,13.270772 c 0,0 -15.15201,3.324894 -31.253999,0.664979 -16.101987,-2.659915 14.249539,-0.569982 14.249539,-0.569982 z"
         id="path3468" />
    </g>
    <path
       style="fill:#ed670f;fill-opacity:1"
       d="m 116.21932,14.458235 c 0,0 5.79482,0.095 9.92719,-1.234961 4.13237,-1.329958 -9.92719,1.234961 -9.92719,1.234961 z"
       id="path3470" />
  </g>
  <rect
     style="fill:#ffffff"
     id="rect572"
     width="10.785448"
     height="22.170088"
     x="221.90736"
     y="6.2853012" />
  <rect
     style="fill:#ffffff"
     id="rect574"
     width="0.56945491"
     height="1.7083647"
     x="232.66331"
     y="9.6147041" />
</svg>
