<svg width="254.862" height="77.639" xmlns="http://www.w3.org/2000/svg"><path style="fill:#ed670f" d="M104.5 17.935c-6.897-1.053-16.384-3.789-18.326-5.285-.931-.717-1.564-.636-2.125.271-1.054 1.705-4.745.516-6.067-1.955-.815-1.522-.565-2.193 1.264-3.392 4.378-2.868 12.668-3.846 28.212-3.328 15.804.527 29.144 3.028 36.792 6.897 4.737 2.397 4.99 5.23.6 6.76-4.016 1.4-5.147 1.387-4.26-.048.505-.818-.121-.934-2.191-.406-4.585 1.169-27.294 1.494-33.899.486zm31.25-1.565c4.696-1.259 1.593-3.699-7.682-6.041-6.432-1.625-31.087-2.923-36.44-1.919C89.633 8.784 88 9.509 88 10.02c0 1.612 5.444 3.828 13.104 5.335 7.44 1.463 30.457 2.137 34.646 1.015z" transform="translate(-11.884 -4.114)"/><path style="fill:#020202" d="M74.668 9.271c-.94-.106-2.41.127-4.807.584a5.073 5.073 0 0 1-.125.034c-.11.026-.221.045-.332.068-.125.026-.25.05-.377.068-.054.006-.106.014-.16.022-1.222.245-2.36.496-3.556.742l-.041.01c-.036.007-.064.01-.096.02l-.024.005a.559.559 0 0 1-.068.012h-.002c-24.39 5.038-37.492 10.603-47.187 20.031-6.35 6.175-7.41 9.522-4.385 13.842 2.164 3.09 10.727 5.97 19.992 6.727 28.715 2.343 34.382 4.341 31.33 11.039-2.217 4.865-15.078 11.029-33.33 15.974-5.5 1.49-10.45 2.902-11 3.139-1.13.486 2.572-.08 13.5-2.068 31.154-5.67 50.083-19.59 40.148-29.526-3.449-3.45-9.965-5.35-24.148-7.047-15.151-1.812-18.775-4.172-13.9-9.047 4.947-4.947 19.62-9.513 42.132-13.113 13.133-2.1 13.698-2.282 10.48-3.396-5.547-1.92-10.107-4.474-11.796-6.604-.732-.923-1.24-1.4-2.248-1.516Zm127.09 22.522c-3.85 0-9.162.07-15.006.207-25.556.601-25.545.598-31.127 11.166a2318.398 2318.398 0 0 1-8.277 15.488l-4.405 8.153 3.756 3.097L150.455 73h13.406c20.275 0 23.106-1.343 30.032-14.25L198.05 51h-11.365c-11.209 0-11.381.035-12.526 2.547-1.524 3.346-1.498 3.453.84 3.453 2.421 0 2.424.043.314 4.467-1.647 3.453-1.818 3.533-7.566 3.533-7.071 0-7.13.7 1.209-14.678l5.87-10.822 14.605-.5 14.605-.5 1.975-3c1.086-1.65 1.978-3.225 1.982-3.5.002-.138-2.386-.207-6.236-.207zm64.988.207-20.123.025c-27.338.036-25.553-.898-36.277 19.008L202.014 66.5l3.478 3.25 3.479 3.25h36.658l1.685-3.533c.927-1.944 1.686-3.744 1.686-4 0-.257-6.3-.467-14-.467-8.058 0-14-.4-14-.94 0-.516 2.867-6.253 6.371-12.75l6.373-11.81 14.877-.303 14.879-.304 1.623-3.446Zm-127.246.027-18.848.237-18.85.236L91.435 52C85.73 62.725 81.049 71.838 81.03 72.25c-.017.412 8.857.74 19.719.729 16.933-.02 20.32-.282 23.75-1.842 5.078-2.31 4.816-1.957 14.04-19.035l7.774-14.397-3.408-2.838zm-15.115 7.12c2.166.016 3.609.23 3.465.566-.193.447-3.275 6.315-6.85 13.04v.003l-6.5 12.228-6.25.008c-3.438.005-6.25-.163-6.25-.373s3.109-5.948 6.908-12.75l6.91-12.369 6.192-.3a42.854 42.854 0 0 1 2.375-.054z" transform="translate(-11.884 -4.114)"/><path style="fill:#ed670f;fill-opacity:1" d="M138.173 17.384s-15.152 3.325-31.254.665c-16.102-2.66 14.25-.57 14.25-.57z" transform="translate(-11.884 -4.114)"/><path style="fill:#ed670f;fill-opacity:1" d="M128.103 18.572s5.795.095 9.928-1.235c4.132-1.33-9.928 1.235-9.928 1.235z" transform="translate(-11.884 -4.114)"/></svg>